<svg version="1.0" xmlns="http://www.w3.org/2000/svg" viewBox="0 0 700 700"><path d="M322.4 98.2c-13 4.4-21.8 14.4-24.2 27.8-2.1 11.3-.7 15.7 12.6 39 5.8 10.2 11.6 20.5 13 23 1.4 2.5 4 7.2 6 10.5 3.2 5.6 5.6 9.7 10.5 18.5 1.1 1.9 4.5 8 7.7 13.5 3.1 5.5 6.8 12 8.2 14.5 1.4 2.5 9.7 17.1 18.5 32.5 8.8 15.4 17.1 30 18.5 32.5 1.4 2.5 6.2 11 10.8 19 4.5 8 9.4 16.5 10.8 19 1.4 2.5 3.3 5.8 4.3 7.5 1 1.6 2.7 4.7 3.8 6.7 1.1 2.1 6 10.6 10.8 19l8.7 15.2.1 98.6.1 98.5 2.3 5.7c3.1 7.9 9.7 15 17.9 19 6.1 3 7.5 3.3 15.7 3.3 7.5-.1 9.9-.5 14.5-2.6 10.4-4.9 18.8-15.6 20.6-26.4.4-2.2.7-47.4.8-100.5l.1-96.5 16.1-28c8.8-15.4 17.6-30.7 19.4-34 1.8-3.3 4.1-7.2 5.1-8.7 1.1-1.4 1.9-2.8 1.9-3.1 0-.2 2.2-4.2 4.8-8.8 2.7-4.6 6-10.4 7.4-12.9 1.4-2.5 9.9-17.6 19-33.5 9.1-16 24.1-42.3 33.3-58.5 9.2-16.2 20.8-36.6 25.7-45.2 5-8.7 9.6-17.9 10.4-20.5 1.8-5.7 1.6-16-.3-21.5-6.7-19.5-28-29.2-47.8-21.7-10.1 3.8-13.9 8.6-32.5 41.4-9 15.9-20.7 36.4-25.8 45.5-5.2 9.1-10.6 18.5-12 21-1.3 2.5-4.2 7.4-6.2 11-2.1 3.6-4.7 8.1-5.7 10-1.1 1.9-7.8 13.6-14.8 26-16.4 28.9-29.3 51.6-31.8 56-1 1.9-2 3.6-2.2 3.8-.1.1-6.7-11.1-14.6-25-7.9-13.9-14.9-26.2-15.6-27.3-.7-1.1-1.5-2.7-2-3.5-.4-.8-1.9-3.6-3.4-6.1-1.5-2.6-4.2-7.3-6-10.5-1.8-3.3-9.4-16.7-16.9-29.9-7.5-13.2-14.8-26-16.2-28.5-1.4-2.5-7.9-14-14.5-25.5-6.6-11.6-13.1-23-14.5-25.5-12.7-22.5-15-25.6-22.5-30.3-8.6-5.4-20.3-6.8-29.9-3.5zm-253 .3c-1.7.9-3.6 2.6-4.1 3.8-1.4 3.1-.9 8.4 1.1 10.6 1.5 1.6 1.6 23.2 1.6 251.7 0 246.7 0 249.9 2 253.1 1.1 1.8 3.1 3.5 4.6 3.9 2.5.6 24.3-.1 31.4-1 1.9-.3 5.8-.8 8.5-1.2 7.9-1 11-1.6 25.5-5.1 33.5-8 70.6-26 98.9-48.1 42.5-33.1 73.9-78.4 89.6-129.2 7.7-24.8 11.5-50.1 11.7-76.5 0-10.7-.9-28.5-1.7-31.5-.2-.8-.7-4-1-7-1.8-16.6-12.6-54.6-19-67l-6-12c-10.5-21.5-25.6-43.4-42-60.9-31.7-33.9-69.6-57.9-114-72.4-7.8-2.6-26.1-7.2-32-8.1-1.6-.2-6.1-.9-10-1.5-10.8-1.7-15-2-29-2.6-10.7-.5-13.5-.3-16.1 1zm36.9 20c85.6 10.2 161.6 67.4 195.4 147 5.2 12.1 11.4 31.8 13.9 44 .2 1.1.6 3.1.9 4.5 1.2 5.8 1.7 9.1 3.2 22.5 1.6 15 .7 46.8-1.7 60-.5 2.7-1.1 6.3-1.4 8-2.1 14.1-10.2 39.4-17.8 55.7-15.7 33.4-35.3 59.3-64.3 84.6-6.5 5.7-26.3 19.8-34.1 24.3-26.1 15-58.9 26.7-84.9 30.4-2.2.4-4.7.8-5.5 1-2.1.5-19.6 1.8-21.5 1.6-.7-.1-1-81.4-.9-242.4.1-133.2.2-242.4.3-242.5.1-.3 11.7.5 18.4 1.3z"/></svg>